<svg width="461" height="470" viewBox="0 0 461 470" fill="none" xmlns="http://www.w3.org/2000/svg">
<g clip-path="url(#clip0_2080_2)">
<path fill-rule="evenodd" clip-rule="evenodd" d="M132.04 349.03L206.25 251.92C259.14 182.75 311.9 113.72 364.82 44.55L367.03 41.66L387.61 57.92L385.37 60.95C347.39 110.65 309.23 160.35 271.25 210.23C216.99 281.06 162.6 352.06 108.51 423.07L106.27 425.96L85.58 409.7L132.07 349.03H132.04ZM101.48 279.26C111.03 282.61 121.29 284.9 132.04 285.96L134.73 286.25L114.29 312.88L113.41 312.71C108.02 311.51 102.67 310.13 97.45 308.44C92.26 306.78 87.02 304.95 82.11 302.69C72.13 298.28 62.89 292.96 54.39 286.57C45.91 280.33 38.15 273.2 31 264.98C24 256.93 17.88 248.09 12.8 238.53C7.74998 229.11 3.72998 218.78 0.57998 207.98L-0.0200195 206H30.08L30.36 207.06C34.56 219.37 40.22 230.48 47.51 240.19C54.8 249.78 63.75 258.28 74.04 265.27C82.69 271.23 91.76 275.78 101.45 279.27L101.48 279.26ZM108.48 143.52H206.08V171.18H106.98V143.52H108.48ZM173.03 467.93V397.84L201.8 360.13V469.44H173.03V467.92V467.93ZM300.42 384.76L246.33 301.93L264.22 278.51L312.35 352.4L434.41 164.79H460.49V469.45H432.03V219.54L323.69 385.4H300.87L300.44 384.8L300.41 384.77L300.42 384.76ZM50.23 73.89C43.06 83.17 37.25 93.64 32.94 105.5L32.63 106.42H2.37998L2.97998 104.44C6.26998 93.79 10.58 83.77 15.65 74.49C20.84 65.36 26.82 56.85 33.82 49.09C40.82 41.19 48.45 34.35 56.78 28.28C65.11 22.35 74.21 17.17 83.88 12.91C93.72 8.66999 103.86 5.31999 114.44 3.19999C125.01 1.04999 135.9 -0.0100098 147.21 -0.0100098C161.98 -0.0100098 175.7 1.67999 188.79 4.99999C201.77 8.48999 213.99 13.5 225.3 20.2C236.64 27.04 246.93 34.94 255.72 44.36C264.65 53.64 272.42 64.14 278.82 76C279.84 77.98 280.89 79.95 281.94 81.93C282.82 83.91 283.87 85.88 284.75 88L285.06 88.74L263.89 116.57L263.15 113.68C261.53 108.5 259.58 103.34 257.34 98.33C255.13 93.46 252.58 88.74 249.74 84.19C244.24 75.52 237.83 67.76 230.66 61.09C223.52 54.39 215.61 48.61 206.68 43.74C197.89 39.04 188.48 35.38 178.36 32.98C168.38 30.52 157.64 29.32 146.33 29.32C133.21 29.32 120.7 30.98 108.91 34.5C97.29 37.82 86.4 43 76.28 49.85C66.13 56.55 57.34 64.59 50.2 73.87L50.23 73.9V73.89Z" fill="white" fill-opacity="0.15"/>
</g>
<defs>
<clipPath id="clip0_2080_2">
<rect width="460.49" height="469.45" fill="white"/>
</clipPath>
</defs>
</svg>
