<svg width="857" height="168" viewBox="0 0 857 168" fill="none" xmlns="http://www.w3.org/2000/svg">
<g clip-path="url(#clip0_2068_2)">
<path fill-rule="evenodd" clip-rule="evenodd" d="M47.45 124.18L74.11 89.62C93.12 65.01 112.13 40.46 131.08 15.85L131.88 14.82L139.27 20.61L138.47 21.69C124.81 39.37 111.16 57.06 97.45 74.8C77.96 100 58.47 125.26 38.98 150.52L38.18 151.55L30.79 145.76L47.44 124.18H47.45ZM36.47 99.35C32.99 98.1 29.72 96.48 26.67 94.37C22.92 91.88 19.71 88.85 17.14 85.44C14.52 81.98 12.43 78.03 10.93 73.65L10.82 73.27H0L0.21 73.97C1.34 77.81 2.79 81.48 4.66 84.84C6.48 88.25 8.63 91.39 11.14 94.25C13.71 97.17 16.5 99.72 19.55 101.93C22.6 104.21 25.92 106.1 29.51 107.66C31.33 108.47 33.15 109.12 35.03 109.72C36.91 110.31 38.83 110.81 40.81 111.24L41.08 111.29L48.42 101.82L47.45 101.71C43.59 101.33 39.95 100.52 36.47 99.33V99.35ZM38.99 51.05H38.46V60.89H74.07V51.05H39H38.99ZM62.17 166.47V167.01H72.5V128.12L62.17 141.53V166.46V166.47ZM107.96 136.89L108.12 137.11H116.32L155.25 78.1V167.01H165.48V58.62H156.16L112.25 125.36L94.95 99.08L88.52 107.41L107.96 136.88V136.89ZM18.05 26.28H18.04C20.66 22.98 23.77 20.11 27.41 17.73C31.05 15.3 34.96 13.46 39.19 12.27C43.36 11.03 47.87 10.43 52.63 10.43C56.65 10.43 60.5 10.86 64.14 11.73C67.73 12.6 71.1 13.9 74.26 15.57C77.47 17.3 80.31 19.36 82.94 21.74C85.51 24.12 87.76 26.88 89.74 29.96C90.76 31.59 91.67 33.26 92.47 34.99C93.27 36.77 93.97 38.61 94.56 40.45L94.88 41.48L102.43 31.58L102.32 31.31C102 30.56 101.68 29.85 101.31 29.15C100.99 28.45 100.62 27.74 100.24 27.04C97.88 22.82 95.16 19.09 91.94 15.79C88.73 12.44 85.09 9.62 80.96 7.19C76.9 4.81 72.5 3.03 67.84 1.78C63.19 0.59 58.2 0 52.96 0C48.84 0 44.93 0.38 41.13 1.13C37.33 1.88 33.69 3.07 30.21 4.59C26.67 6.1 23.47 7.94 20.47 10.05C17.42 12.21 14.69 14.65 12.17 17.46C9.65 20.22 7.51 23.24 5.64 26.49C3.82 29.79 2.32 33.36 1.14 37.15L0.93 37.85H11.74L11.85 37.53C13.4 33.31 15.49 29.58 18.06 26.28H18.05Z" fill="#323232"/>
<path fill-rule="evenodd" clip-rule="evenodd" d="M211.13 67.02V30.87H234.67V37.79H219.19V45.28H233.3V52.12H219.19V60.02H235.23V67.02H211.13Z" fill="#323232"/>
<path fill-rule="evenodd" clip-rule="evenodd" d="M252.41 67.02V30.87H260.55V59.28H276.19V67.02H252.41Z" fill="#323232"/>
<path fill-rule="evenodd" clip-rule="evenodd" d="M292.07 67.02V30.87H306.26C310.05 30.87 313.35 31.6 316.17 33.15C318.99 34.7 321.25 36.73 322.78 39.5C324.4 42.18 325.12 45.37 325.12 48.94C325.12 52.51 324.39 55.78 322.78 58.47C321.25 61.15 318.99 63.28 316.17 64.82C313.35 66.29 310.04 67.02 306.26 67.02H292.07ZM300.22 59.53H306.11C308.21 59.53 310.06 59.04 311.68 58.23C313.3 57.34 314.58 56.11 315.47 54.49C316.36 52.94 316.84 51.07 316.84 48.95C316.84 46.83 316.35 44.96 315.47 43.41C314.58 41.86 313.29 40.64 311.68 39.74C310.07 38.85 308.13 38.44 306.04 38.44H300.23V59.53H300.22Z" fill="#323232"/>
<path fill-rule="evenodd" clip-rule="evenodd" d="M337.95 67.02L352.22 30.87H360.2L374.47 67.02H365.76L363.34 60.83H349.07L346.65 67.02H337.94H337.95ZM351.17 54.32H361.33L356.17 41.13L351.17 54.32Z" fill="#323232"/>
<path fill-rule="evenodd" clip-rule="evenodd" d="M389.38 67.02V30.87H404.7C407.44 30.87 409.78 31.36 411.79 32.34C413.8 33.32 415.34 34.78 416.47 36.66C417.6 38.53 418.08 40.73 418.08 43.34C418.08 45.95 417.52 48.31 416.31 50.18C415.1 52.13 413.49 53.52 411.31 54.5L418.73 67.04H409.3L402.93 55.81H397.53V67.04H389.39L389.38 67.02ZM397.44 48.86H403.65C405.66 48.86 407.2 48.37 408.24 47.39C409.37 46.5 409.86 45.11 409.86 43.32C409.86 41.53 409.37 40.23 408.24 39.33C407.19 38.35 405.66 37.86 403.65 37.86H397.44V48.85V48.86Z" fill="#323232"/>
<path fill-rule="evenodd" clip-rule="evenodd" d="M438.24 67.59C436.79 67.59 435.66 67.18 434.78 66.29C433.89 65.4 433.49 64.34 433.49 62.95C433.49 61.65 433.89 60.51 434.78 59.61C435.67 58.72 436.79 58.22 438.24 58.22C439.61 58.22 440.74 58.71 441.63 59.61C442.6 60.5 443 61.65 443 62.95C443 64.34 442.6 65.39 441.63 66.29C440.74 67.18 439.62 67.59 438.24 67.59Z" fill="#323232"/>
<path fill-rule="evenodd" clip-rule="evenodd" d="M459.6 67.02V30.87H466.45L479.19 49.59L491.93 30.87H498.78V67.02H490.64V45.28L481.94 58.14H476.37L467.66 45.19V67.02H459.6Z" fill="#323232"/>
<path fill-rule="evenodd" clip-rule="evenodd" d="M513.7 67.02L527.97 30.87H535.95L550.22 67.02H541.51L539.09 60.83H524.82L522.4 67.02H513.69H513.7ZM527 54.32H537.08L531.92 41.13L527 54.32Z" fill="#323232"/>
<path fill-rule="evenodd" clip-rule="evenodd" d="M565.13 67.02V30.87H580.45C583.19 30.87 585.53 31.36 587.54 32.34C589.55 33.32 591.17 34.78 592.22 36.66C593.35 38.53 593.91 40.73 593.91 43.34C593.91 45.95 593.27 48.31 592.06 50.18C590.85 52.13 589.24 53.52 587.06 54.5L594.48 67.04H585.05L578.68 55.81H573.28V67.04H565.14L565.13 67.02ZM573.2 48.86H579.41C581.42 48.86 582.96 48.37 584 47.39C585.13 46.5 585.69 45.11 585.69 43.32C585.69 41.53 585.13 40.23 584 39.33C582.95 38.35 581.42 37.86 579.41 37.86H573.2V48.85V48.86Z" fill="#323232"/>
<path fill-rule="evenodd" clip-rule="evenodd" d="M611.41 67.02V30.87H619.55V44.71H622.61C624.62 44.71 626.07 44.38 627.05 43.82C627.94 43.17 628.74 41.95 629.39 40.24L632.78 30.88H641.57L636.65 43.75C636.16 44.89 635.68 45.95 635.12 46.93C634.56 47.82 633.91 48.64 633.18 49.37L642.85 67.04H633.42L625.68 52.38C625.36 52.38 625.12 52.46 624.79 52.46H619.55V67.03H611.41V67.02Z" fill="#323232"/>
<path fill-rule="evenodd" clip-rule="evenodd" d="M658.89 67.02V30.87H682.43V37.79H666.96V45.28H681.07V52.12H666.96V60.02H682.92V67.02H658.9H658.89Z" fill="#323232"/>
<path fill-rule="evenodd" clip-rule="evenodd" d="M708.72 67.02V38.52H697.35V30.87H728.15V38.52H716.78V67.02H708.72Z" fill="#323232"/>
<path d="M752.41 30.87H744.27V67.02H752.41V30.87Z" fill="#323232"/>
<path fill-rule="evenodd" clip-rule="evenodd" d="M771.2 67.02V30.87H778.13L793.93 52.85V30.87H802V67.02H795.14L779.34 44.87V67.02H771.2Z" fill="#323232"/>
<path fill-rule="evenodd" clip-rule="evenodd" d="M837.55 67.75C833.92 67.75 830.62 66.94 827.79 65.39C824.97 63.76 822.79 61.57 821.18 58.71C819.56 55.86 818.76 52.6 818.76 48.94C818.76 45.28 819.57 42.02 821.1 39.25C822.72 36.4 824.89 34.12 827.71 32.49C830.53 30.94 833.76 30.13 837.38 30.13C840.28 30.13 842.95 30.62 845.44 31.68C847.86 32.74 849.95 34.21 851.73 36.08C853.42 37.95 854.63 40.15 855.36 42.68H846.57C845.68 41.13 844.47 39.91 842.86 39.01C841.33 38.12 839.55 37.71 837.54 37.71C835.53 37.71 833.59 38.2 831.97 39.1C830.44 40.08 829.15 41.46 828.18 43.09C827.29 44.8 826.89 46.76 826.89 48.96C826.89 51.16 827.29 53.03 828.18 54.74C829.15 56.45 830.36 57.75 831.97 58.73C833.59 59.71 835.43 60.28 837.61 60.28C840.27 60.28 842.45 59.55 844.14 58.24C845.91 56.85 847.04 55.06 847.53 52.87H835.92V46.52H856.16C856.4 49.61 856.08 52.46 855.27 55.07C854.46 57.68 853.17 59.88 851.56 61.83C849.94 63.7 847.93 65.25 845.51 66.23C843.17 67.29 840.51 67.78 837.53 67.78L837.55 67.75Z" fill="#323232"/>
<path fill-rule="evenodd" clip-rule="evenodd" d="M246.2 129.96V112.05H248.86L255.96 122.07L263.05 112.05H265.71V129.96H262.89V116.85L257 125.24H254.99L249.03 116.85V129.96H246.21H246.2Z" fill="#323232"/>
<path fill-rule="evenodd" clip-rule="evenodd" d="M283.04 130.21C280.86 130.21 279.17 129.8 277.96 128.82C276.75 127.84 276.19 126.46 276.19 124.83C276.19 123.2 276.75 121.9 277.88 120.92C279.01 119.94 280.46 119.45 282.32 119.45H289.58V118.8C289.58 117.41 289.09 116.27 288.21 115.54C287.32 114.73 286.2 114.32 284.75 114.32C283.54 114.32 282.57 114.57 281.69 115.13C280.88 115.62 280.32 116.27 280 117.17H277.1C277.5 115.46 278.39 114.08 279.76 113.1C281.14 112.12 282.74 111.63 284.68 111.63C286.21 111.63 287.58 111.88 288.71 112.52C289.92 113.09 290.81 113.91 291.45 114.96C292.09 115.94 292.42 117.16 292.42 118.63V129.95H290.08L289.76 127.51C288.15 129.3 285.89 130.19 283.07 130.19H283.06L283.04 130.21ZM279.09 124.75C279.09 125.64 279.41 126.3 280.14 126.87C280.87 127.44 281.83 127.68 283.12 127.68C284.33 127.68 285.46 127.43 286.43 126.95C287.32 126.46 288.12 125.81 288.69 124.91C289.25 124.1 289.58 123.12 289.58 121.98H282.4C281.43 121.98 280.63 122.31 279.98 122.79C279.34 123.28 279.09 123.93 279.09 124.74V124.75Z" fill="#323232"/>
<path fill-rule="evenodd" clip-rule="evenodd" d="M313.2 130.45C311.75 130.45 310.46 130.12 309.33 129.64C308.12 129.07 307.15 128.34 306.35 127.44V136.88H303.45V112.04H305.87L306.19 114.81C307 113.83 307.96 113.02 309.17 112.45C310.38 111.88 311.75 111.64 313.2 111.64C314.89 111.64 316.42 112.05 317.79 112.86C319.16 113.67 320.21 114.81 321.01 116.2C321.82 117.59 322.14 119.21 322.14 121.01C322.14 122.81 321.82 124.43 321.01 125.82C320.2 127.29 319.16 128.35 317.79 129.24C316.42 130.05 314.89 130.46 313.2 130.46V130.45ZM306.26 121C306.26 122.3 306.5 123.44 307.07 124.42C307.63 125.4 308.44 126.21 309.41 126.78C310.38 127.35 311.51 127.59 312.8 127.59C314.09 127.59 315.22 127.34 316.19 126.78C317.16 126.21 317.96 125.39 318.45 124.42C319.01 123.44 319.34 122.3 319.34 121C319.34 119.7 319.02 118.56 318.45 117.58C317.96 116.52 317.16 115.79 316.19 115.22C315.22 114.65 314.09 114.41 312.8 114.41C311.51 114.41 310.38 114.66 309.41 115.22C308.44 115.79 307.64 116.52 307.07 117.58C306.51 118.56 306.26 119.7 306.26 121Z" fill="#323232"/>
<path fill-rule="evenodd" clip-rule="evenodd" d="M332.22 129.96V112.05H335.12V119.54H337.3C338.75 119.54 339.8 119.29 340.61 118.81C341.42 118.32 341.98 117.34 342.55 115.96L343.84 112.05H346.9L345.13 116.93C344.49 118.88 343.52 120.27 342.23 121.08L347.8 129.96H344.34L339.5 122.06C339.18 122.14 338.77 122.14 338.37 122.22H335.15V129.96H332.25H332.22Z" fill="#323232"/>
<path fill-rule="evenodd" clip-rule="evenodd" d="M364.95 130.45C363.09 130.45 361.56 130.04 360.19 129.23C358.82 128.42 357.77 127.36 356.97 125.89C356.24 124.5 355.84 122.88 355.84 121.01C355.84 119.14 356.24 117.59 356.97 116.13C357.78 114.74 358.83 113.6 360.19 112.79C361.56 112.06 363.17 111.65 364.95 111.65C366.73 111.65 368.5 112.06 369.87 112.95C371.24 113.84 372.29 115.07 373.01 116.69C373.74 118.24 374.14 120.11 374.06 122.15H358.74C358.98 123.86 359.63 125.16 360.75 126.22C361.88 127.2 363.25 127.69 364.94 127.69C366.07 127.69 367.12 127.44 368.08 126.96C369.05 126.47 369.85 125.74 370.34 124.76H373.65C372.92 126.47 371.79 127.85 370.26 128.91C368.73 129.89 366.87 130.46 364.94 130.46L364.95 130.45ZM358.75 119.62H371.24C370.92 117.99 370.19 116.69 369.06 115.8C367.93 114.82 366.56 114.33 364.95 114.33C363.34 114.33 361.97 114.82 360.84 115.8C359.71 116.78 358.98 118.08 358.74 119.62H358.75Z" fill="#323232"/>
<path fill-rule="evenodd" clip-rule="evenodd" d="M388.66 129.96V114.73H381.97V112.05H398.17V114.73H391.48V129.96H388.66Z" fill="#323232"/>
<path fill-rule="evenodd" clip-rule="evenodd" d="M407.44 129.96V112.05H410.34V125.48L421.22 112.05H423.96V129.96H421.06V116.53L410.18 129.96H407.44Z" fill="#323232"/>
<path fill-rule="evenodd" clip-rule="evenodd" d="M448.64 129.96V122.31H438.24V129.96H435.42V112.05H438.24V119.54H448.64V112.05H451.46V129.96H448.64Z" fill="#323232"/>
<path fill-rule="evenodd" clip-rule="evenodd" d="M462.9 129.96V112.05H474.59V114.73H465.8V129.96H462.9Z" fill="#323232"/>
<path fill-rule="evenodd" clip-rule="evenodd" d="M491.85 130.45C489.99 130.45 488.39 130.04 486.93 129.23C485.56 128.42 484.43 127.28 483.71 125.89C482.9 124.42 482.5 122.8 482.5 121.01C482.5 119.22 482.9 117.59 483.71 116.13C484.44 114.74 485.57 113.6 486.93 112.79C488.38 112.06 489.99 111.65 491.85 111.65C493.71 111.65 495.31 112.06 496.77 112.79C498.14 113.6 499.27 114.74 499.99 116.13C500.8 117.6 501.2 119.14 501.2 121.01C501.2 122.88 500.8 124.43 499.99 125.89C499.26 127.28 498.14 128.42 496.77 129.23C495.32 130.04 493.71 130.45 491.85 130.45ZM485.32 121C485.32 122.3 485.56 123.44 486.13 124.5C486.69 125.48 487.5 126.29 488.47 126.78C489.44 127.35 490.57 127.59 491.86 127.59C493.15 127.59 494.28 127.34 495.25 126.78C496.22 126.29 496.94 125.48 497.51 124.5C498.07 123.44 498.4 122.3 498.4 121C498.4 119.7 498.08 118.56 497.51 117.58C496.95 116.52 496.22 115.79 495.25 115.22C494.28 114.65 493.15 114.41 491.86 114.41C490.57 114.41 489.44 114.66 488.47 115.22C487.5 115.79 486.7 116.52 486.13 117.58C485.57 118.56 485.32 119.7 485.32 121Z" fill="#323232"/>
<path fill-rule="evenodd" clip-rule="evenodd" d="M511.28 129.96V112.05H519.82C521.59 112.05 522.96 112.54 524.01 113.44C525.14 114.33 525.63 115.47 525.63 116.94C525.63 117.75 525.47 118.57 524.99 119.22C524.59 119.95 524.02 120.44 523.3 120.85C524.19 121.26 524.83 121.83 525.31 122.56C525.8 123.29 526.12 124.11 526.12 125.17C526.12 126.64 525.56 127.78 524.43 128.67C523.38 129.56 521.93 129.97 520.16 129.97H511.29L511.28 129.96ZM514.18 127.35H520.23C521.12 127.35 521.85 127.1 522.41 126.7C522.97 126.21 523.22 125.56 523.22 124.75C523.22 123.94 522.98 123.28 522.41 122.8C521.85 122.39 521.12 122.15 520.23 122.15H514.18V127.36V127.35ZM514.18 119.62H520.07C520.88 119.62 521.52 119.37 522.01 118.89C522.5 118.48 522.74 117.83 522.74 117.1C522.74 116.37 522.5 115.8 522.01 115.31C521.52 114.9 520.88 114.66 520.07 114.66H514.18V119.63V119.62Z" fill="#323232"/>
<path fill-rule="evenodd" clip-rule="evenodd" d="M544.09 130.45C542.24 130.45 540.63 130.04 539.17 129.23C537.8 128.42 536.67 127.28 535.86 125.89C535.05 124.42 534.65 122.8 534.65 121.01C534.65 119.22 535.05 117.59 535.86 116.13C536.67 114.74 537.8 113.6 539.17 112.79C540.62 112.06 542.23 111.65 544.09 111.65C545.95 111.65 547.55 112.06 548.93 112.79C550.38 113.6 551.43 114.74 552.24 116.13C553.05 117.6 553.45 119.14 553.45 121.01C553.45 122.88 553.05 124.43 552.24 125.89C551.43 127.28 550.39 128.42 548.93 129.23C547.56 130.04 545.87 130.45 544.09 130.45ZM537.56 121C537.56 122.3 537.8 123.44 538.37 124.5C538.93 125.48 539.74 126.29 540.71 126.78C541.68 127.35 542.81 127.59 544.1 127.59C545.31 127.59 546.44 127.34 547.49 126.78C548.46 126.29 549.18 125.48 549.75 124.5C550.31 123.44 550.64 122.3 550.64 121C550.64 119.7 550.32 118.56 549.75 117.58C549.19 116.52 548.46 115.79 547.49 115.22C546.44 114.65 545.31 114.41 544.1 114.41C542.81 114.41 541.68 114.66 540.71 115.22C539.74 115.79 538.94 116.52 538.37 117.58C537.81 118.56 537.56 119.7 537.56 121Z" fill="#323232"/>
<path fill-rule="evenodd" clip-rule="evenodd" d="M571.18 130.45C569.41 130.45 567.87 130.04 566.5 129.23C565.13 128.42 564.08 127.36 563.28 125.89C562.47 124.5 562.15 122.88 562.15 121.01C562.15 119.14 562.47 117.59 563.28 116.13C564.09 114.74 565.13 113.6 566.5 112.79C567.87 112.06 569.48 111.65 571.26 111.65C573.04 111.65 574.72 112.06 576.1 112.95C577.55 113.84 578.6 115.07 579.32 116.69C580.05 118.24 580.37 120.11 580.37 122.15H565.05C565.21 123.86 565.94 125.16 566.99 126.22C568.12 127.2 569.57 127.69 571.26 127.69C572.39 127.69 573.44 127.44 574.4 126.96C575.37 126.47 576.09 125.74 576.66 124.76H579.88C579.15 126.47 578.02 127.85 576.49 128.91C574.96 129.89 573.18 130.46 571.17 130.46L571.18 130.45ZM565.05 119.62H577.46C577.22 117.99 576.49 116.69 575.36 115.8C574.23 114.82 572.86 114.33 571.25 114.33C569.64 114.33 568.19 114.82 567.06 115.8C565.93 116.78 565.29 118.08 565.05 119.62Z" fill="#323232"/>
<path fill-rule="evenodd" clip-rule="evenodd" d="M609.71 130.21C607.61 130.21 605.92 129.8 604.71 128.82C603.5 127.84 602.86 126.46 602.86 124.83C602.86 123.2 603.42 121.9 604.55 120.92C605.68 119.94 607.21 119.45 608.99 119.45H616.25V118.8C616.25 117.41 615.85 116.27 614.96 115.54C614.07 114.73 612.86 114.32 611.41 114.32C610.28 114.32 609.23 114.57 608.43 115.13C607.54 115.62 606.98 116.27 606.74 117.17H603.84C604.24 115.46 605.05 114.08 606.42 113.1C607.79 112.12 609.48 111.63 611.42 111.63C612.95 111.63 614.24 111.88 615.45 112.52C616.58 113.09 617.46 113.91 618.11 114.96C618.75 115.94 619.16 117.16 619.16 118.63V129.95H616.74L616.42 127.51C614.89 129.3 612.63 130.19 609.73 130.19H609.72L609.71 130.21ZM605.76 124.75C605.76 125.64 606.16 126.3 606.81 126.87C607.54 127.44 608.58 127.68 609.79 127.68C611.08 127.68 612.13 127.43 613.1 126.95C614.07 126.46 614.79 125.81 615.36 124.91C616 124.1 616.25 123.12 616.25 121.98H609.16C608.11 121.98 607.31 122.31 606.74 122.79C606.1 123.28 605.77 123.93 605.77 124.74H605.76V124.75Z" fill="#323232"/>
<path fill-rule="evenodd" clip-rule="evenodd" d="M630.19 129.96V112.05H641.8V114.73H633.09V129.96H630.19Z" fill="#323232"/>
<path fill-rule="evenodd" clip-rule="evenodd" d="M658.81 130.45C657.04 130.45 655.42 130.04 654.05 129.23C652.68 128.42 651.63 127.36 650.91 125.89C650.1 124.5 649.7 122.88 649.7 121.01C649.7 119.14 650.1 117.59 650.91 116.13C651.64 114.74 652.68 113.6 654.05 112.79C655.5 112.06 657.03 111.65 658.81 111.65C660.75 111.65 662.36 112.06 663.73 112.95C665.1 113.84 666.15 115.07 666.95 116.69C667.68 118.24 668 120.11 667.92 122.15H652.6C652.84 123.86 653.49 125.16 654.61 126.22C655.74 127.2 657.11 127.69 658.8 127.69C660.01 127.69 661.06 127.44 662.02 126.96C662.99 126.47 663.71 125.74 664.28 124.76H667.5C666.77 126.47 665.65 127.85 664.11 128.91C662.58 129.89 660.8 130.46 658.79 130.46L658.81 130.45ZM652.69 119.62H665.1C664.78 117.99 664.13 116.69 663.01 115.8C661.88 114.82 660.51 114.33 658.82 114.33C657.13 114.33 655.84 114.82 654.71 115.8C653.58 116.78 652.94 118.08 652.7 119.62H652.69Z" fill="#323232"/>
<path fill-rule="evenodd" clip-rule="evenodd" d="M691.14 129.96V122.31H680.83V129.96H677.92V112.05H680.83V119.54H691.14V112.05H694.05V129.96H691.14Z" fill="#323232"/>
<path fill-rule="evenodd" clip-rule="evenodd" d="M710.09 129.96V114.73H703.4V112.05H719.6V114.73H712.91V129.96H710.09Z" fill="#323232"/>
<path fill-rule="evenodd" clip-rule="evenodd" d="M736.61 130.45C734.84 130.45 733.3 130.04 731.93 129.23C730.56 128.42 729.43 127.28 728.71 125.89C727.9 124.42 727.5 122.8 727.5 121.01C727.5 119.22 727.9 117.59 728.71 116.2C729.44 114.73 730.56 113.59 731.93 112.78C733.3 112.05 734.83 111.64 736.61 111.64C738.14 111.64 739.43 111.89 740.64 112.45C741.93 113.02 742.98 113.84 743.78 114.81C744.67 115.79 745.23 117.01 745.47 118.31H742.57C742.08 117.09 741.28 116.19 740.23 115.46C739.18 114.73 737.97 114.4 736.6 114.4C735.39 114.4 734.34 114.65 733.38 115.21C732.41 115.78 731.69 116.51 731.12 117.57C730.63 118.55 730.31 119.69 730.31 120.99C730.31 122.29 730.63 123.43 731.12 124.41C731.68 125.39 732.41 126.2 733.38 126.77C734.35 127.34 735.39 127.58 736.6 127.58C738.05 127.58 739.26 127.25 740.31 126.44C741.44 125.71 742.25 124.65 742.65 123.35H745.71C745.07 125.55 743.94 127.26 742.32 128.48C740.7 129.78 738.86 130.43 736.6 130.43L736.61 130.45Z" fill="#323232"/>
<path fill-rule="evenodd" clip-rule="evenodd" d="M760.23 129.96V114.73H753.54V112.05H769.74V114.73H763.06V129.96H760.23Z" fill="#323232"/>
<path fill-rule="evenodd" clip-rule="evenodd" d="M779.1 129.96V112.05H787.56C789.33 112.05 790.78 112.54 791.83 113.44C792.88 114.33 793.45 115.47 793.45 116.94C793.45 117.75 793.21 118.57 792.81 119.22C792.41 119.95 791.84 120.44 791.12 120.85C792.01 121.26 792.65 121.83 793.13 122.56C793.62 123.29 793.86 124.11 793.86 125.17C793.86 126.64 793.3 127.78 792.25 128.67C791.12 129.56 789.75 129.97 787.98 129.97H779.11L779.1 129.96ZM781.92 127.35H787.97C788.94 127.35 789.66 127.1 790.15 126.7C790.71 126.21 790.96 125.56 790.96 124.75C790.96 123.94 790.72 123.28 790.15 122.8C789.66 122.39 788.94 122.15 787.97 122.15H781.92V127.36V127.35ZM781.92 119.62H787.88C788.69 119.62 789.25 119.37 789.74 118.89C790.3 118.48 790.55 117.83 790.55 117.1C790.55 116.37 790.31 115.8 789.74 115.31C789.25 114.9 788.69 114.66 787.88 114.66H781.92V119.63V119.62Z" fill="#323232"/>
<path fill-rule="evenodd" clip-rule="evenodd" d="M811.83 130.45C809.97 130.45 808.37 130.04 806.91 129.23C805.54 128.42 804.49 127.28 803.69 125.89C802.88 124.42 802.48 122.8 802.48 121.01C802.48 119.22 802.88 117.59 803.69 116.13C804.5 114.74 805.55 113.6 806.91 112.79C808.36 112.06 809.97 111.65 811.83 111.65C813.69 111.65 815.29 112.06 816.75 112.79C818.12 113.6 819.25 114.74 820.06 116.13C820.79 117.6 821.19 119.14 821.19 121.01C821.19 122.88 820.79 124.43 820.06 125.89C819.25 127.28 818.12 128.42 816.75 129.23C815.3 130.04 813.69 130.45 811.83 130.45ZM805.3 121C805.3 122.3 805.62 123.44 806.19 124.5C806.68 125.48 807.48 126.29 808.45 126.78C809.42 127.35 810.55 127.59 811.84 127.59C813.13 127.59 814.26 127.34 815.23 126.78C816.2 126.29 817 125.48 817.57 124.5C818.13 123.44 818.38 122.3 818.38 121C818.38 119.7 818.14 118.56 817.57 117.58C817.01 116.52 816.2 115.79 815.23 115.22C814.26 114.65 813.13 114.41 811.84 114.41C810.55 114.41 809.42 114.66 808.45 115.22C807.48 115.79 806.68 116.52 806.19 117.58C805.63 118.56 805.3 119.7 805.3 121Z" fill="#323232"/>
</g>
<defs>
<clipPath id="clip0_2068_2">
<rect width="856.25" height="167.01" fill="white"/>
</clipPath>
</defs>
</svg>
